<?xml version="1.0" encoding="utf-8"?>
<!-- Generator: Adobe Illustrator 19.1.1, SVG Export Plug-In . SVG Version: 6.00 Build 0)  -->
<svg version="1.1" id="Layer_1" xmlns="http://www.w3.org/2000/svg" xmlns:xlink="http://www.w3.org/1999/xlink" x="0px" y="0px"
	 viewBox="0 0 595.3 841.9" style="enable-background:new 0 0 595.3 841.9;" xml:space="preserve">
<style type="text/css">
	.st0{fill:#FFFFFF;}
</style>
<g>
	<path class="st0" d="M251.3,304.7l3.8-25.1h7.7l-6.2,40.8h-7.7l-2.2-10l-2.2,10h-7.7l-6.2-40.8h7.7l3.8,25.1l3.5-15.9h2.2
		L251.3,304.7z"/>
	<path class="st0" d="M295.9,312.7c0,1.1-0.2,2.1-0.6,3c-0.4,0.9-1,1.8-1.7,2.4c-0.7,0.7-1.5,1.2-2.5,1.7c-1,0.4-2,0.6-3,0.6h-21.5
		v-40.8h21.5c1.1,0,2.1,0.2,3,0.6c1,0.4,1.8,1,2.5,1.7c0.7,0.7,1.2,1.5,1.7,2.5c0.4,1,0.6,2,0.6,3V306V312.7z M274,313h12.2
		c0.6,0,1.2-0.2,1.6-0.7c0.4-0.4,0.7-1,0.7-1.6v-4.9v-16.6c0-0.6-0.2-1.2-0.7-1.6c-0.4-0.4-1-0.7-1.6-0.7H274v17.9V313z"/>
	<path class="st0" d="M309.1,320.4h-7.3v-40.8h7.3V320.4z"/>
	<path class="st0" d="M337.7,279.6v22h5.6v7.3h-5.6v11.5h-7.3v-11.5h-16.3v-7.3l16.3-22H337.7z M323.1,301.7h7.2v-9.7L323.1,301.7z"
		/>
</g>
<g>
	<path class="st0" d="M254.7,350.4c0,0.9-0.2,1.7-0.5,2.4c-0.3,0.8-0.8,1.4-1.3,2c-0.6,0.6-1.2,1-2,1.3c-0.8,0.3-1.6,0.5-2.4,0.5
		h-11.1c-0.9,0-1.7-0.2-2.4-0.5c-0.8-0.3-1.4-0.8-2-1.3c-0.6-0.6-1-1.2-1.3-2c-0.3-0.8-0.5-1.6-0.5-2.4v-20.3c0-0.8,0.2-1.7,0.5-2.4
		s0.8-1.4,1.3-2c0.6-0.6,1.2-1,2-1.3c0.8-0.3,1.6-0.5,2.4-0.5h11.1c0.8,0,1.7,0.2,2.4,0.5c0.8,0.3,1.4,0.8,2,1.3
		c0.6,0.6,1,1.2,1.3,2c0.3,0.8,0.5,1.6,0.5,2.4v1.7l-5.9,3v-3.2c0-0.5-0.2-1-0.5-1.3c-0.4-0.4-0.8-0.5-1.4-0.5h-8
		c-0.5,0-1,0.2-1.3,0.5c-0.4,0.4-0.5,0.8-0.5,1.3v17.3c0,0.5,0.2,1,0.5,1.3c0.4,0.4,0.8,0.5,1.3,0.5h8c0.5,0,1-0.2,1.4-0.5
		c0.4-0.4,0.5-0.8,0.5-1.3v-3.1l5.9,2.9V350.4z"/>
	<path class="st0" d="M284,350.4c0,0.9-0.2,1.7-0.5,2.4c-0.3,0.8-0.8,1.4-1.3,2c-0.6,0.6-1.2,1-2,1.3c-0.8,0.3-1.6,0.5-2.4,0.5
		h-11.1c-0.9,0-1.7-0.2-2.4-0.5c-0.8-0.3-1.4-0.8-2-1.3c-0.6-0.6-1-1.2-1.3-2c-0.3-0.8-0.5-1.6-0.5-2.4v-20.3c0-0.8,0.2-1.7,0.5-2.4
		c0.3-0.8,0.8-1.4,1.3-2c0.6-0.5,1.2-1,2-1.3c0.8-0.3,1.6-0.5,2.4-0.5h11.1c0.8,0,1.7,0.2,2.4,0.5c0.8,0.3,1.4,0.8,2,1.3
		c0.6,0.5,1,1.2,1.3,2s0.5,1.6,0.5,2.4v18.5V350.4z M278.1,331.6c0-0.5-0.2-1-0.6-1.3c-0.4-0.4-0.8-0.5-1.4-0.5h-8
		c-0.5,0-1,0.2-1.3,0.5c-0.4,0.4-0.5,0.8-0.5,1.3v17.3c0,0.5,0.2,1,0.5,1.3c0.4,0.4,0.8,0.5,1.3,0.5h8c0.5,0,1-0.2,1.4-0.5
		c0.4-0.4,0.5-0.8,0.5-1.3v-3.2V331.6z"/>
	<path class="st0" d="M307.8,323.9h5.9v32.8h-5.7l-11.8-20.9v20.9h-5.9v-32.8h5.9l11.7,20.6V323.9z"/>
	<path class="st0" d="M319.6,356.7v-32.8H343v5.9h-17.5v7.6h11.6v5.9h-11.6v13.5H319.6z"/>
</g>
<path class="st0" d="M224.8,304.4c-28.4-0.2-57.2-0.6-72.3-2.9c-13.6-2.2-19.2-5.3-23.7-8c-9.1-5.5-7.9-10.8-8-10.9h104V304.4z"/>
<path class="st0" d="M224.3,330.1l-53.3,0.1c0,0-24.2-19.8-22.2-20.1c2.1-0.3,75.5,0,75.5,0V330.1z"/>
<path class="st0" d="M224.3,354.2l-33.5-0.2c0,0-18-16.5-18-16.5c0,0,51.5,0,51.5,0V354.2z"/>
<path class="st0" d="M348.5,304.4c28.4-0.2,57.2-0.6,72.3-2.9c13.6-2.2,19.2-5.3,23.7-8c9.1-5.5,7.9-10.8,8-10.9h-104"/>
<path class="st0" d="M348.9,330.1l53.3,0.1c0,0,24.2-19.8,22.2-20.1c-2.1-0.3-75.5,0-75.5,0"/>
<path class="st0" d="M348.9,354.2l33.5-0.2c0,0,18-16.5,18-16.5s-51.5,0-51.5,0"/>
</svg>
