<?xml version="1.0" encoding="utf-8"?>
<svg version="1.1" id="Layer_1" xmlns="http://www.w3.org/2000/svg" xmlns:xlink="http://www.w3.org/1999/xlink" x="0px" y="0px"
	 viewBox="0 0 595.3 841.9" style="enable-background:new 0 0 595.3 841.9;" xml:space="preserve">
<style type="text/css">
	.st0{fill:none;}
	.st1{fill:#FFFFFF;}
	.st2{font-family:'AFCarplates';}
	.st3{font-size:51px;}
	.st4{letter-spacing:-3;}
	.st5{font-size:41px;}
	.st6{letter-spacing:-1;}
</style>
<rect x="229" y="279.6" class="st0" width="117.5" height="44.6"/>
<text transform="matrix(1 0 0 1 229 320.4243)" class="st1 st2 st3 st4">WDI4</text>
<rect x="228" y="323.9" class="st0" width="118.5" height="45.4"/>
<text transform="matrix(1 0 0 1 228 356.6743)" class="st1 st2 st5 st6">conf</text>
<path class="st1" d="M224.8,304.4c-28.4-0.2-57.2-0.6-72.3-2.9c-13.6-2.2-19.2-5.3-23.7-8c-9.1-5.5-7.9-10.8-8-10.9h104V304.4z"/>
<path class="st1" d="M224.3,330.1l-53.3,0.1c0,0-24.2-19.8-22.2-20.1c2.1-0.3,75.5,0,75.5,0V330.1z"/>
<path class="st1" d="M224.3,354.2l-33.5-0.2c0,0-18-16.5-18-16.5c0,0,51.5,0,51.5,0V354.2z"/>
<path class="st1" d="M348.5,304.4c28.4-0.2,57.2-0.6,72.3-2.9c13.6-2.2,19.2-5.3,23.7-8c9.1-5.5,7.9-10.8,8-10.9h-104"/>
<path class="st1" d="M348.9,330.1l53.3,0.1c0,0,24.2-19.8,22.2-20.1c-2.1-0.3-75.5,0-75.5,0"/>
<path class="st1" d="M348.9,354.2l33.5-0.2c0,0,18-16.5,18-16.5s-51.5,0-51.5,0"/>
</svg>
